<?xml version="1.0" encoding="UTF-8" standalone="no"?>
<svg
   xmlns:dc="http://purl.org/dc/elements/1.1/"
   xmlns:cc="http://creativecommons.org/ns#"
   xmlns:rdf="http://www.w3.org/1999/02/22-rdf-syntax-ns#"
   xmlns:svg="http://www.w3.org/2000/svg"
   xmlns="http://www.w3.org/2000/svg"
   xmlns:sodipodi="http://sodipodi.sourceforge.net/DTD/sodipodi-0.dtd"
   xmlns:inkscape="http://www.inkscape.org/namespaces/inkscape"
   width="714.96002"
   height="294.95999"
   viewBox="0 0 714.96002 294.95999"
   version="1.1"
   id="svg6"
   sodipodi:docname="KTVU (2020 Blue).svg"
   inkscape:version="1.0 (4035a4fb49, 2020-05-01)">
  <metadata
     id="metadata12">
    <rdf:RDF>
      <cc:Work
         rdf:about="">
        <dc:format>image/svg+xml</dc:format>
        <dc:type
           rdf:resource="http://purl.org/dc/dcmitype/StillImage" />
        <dc:title>logo/4-color/san-francisco</dc:title>
      </cc:Work>
    </rdf:RDF>
  </metadata>
  <defs
     id="defs10" />
  <sodipodi:namedview
     inkscape:document-rotation="0"
     pagecolor="#ffffff"
     bordercolor="#666666"
     borderopacity="1"
     objecttolerance="10"
     gridtolerance="10"
     guidetolerance="10"
     inkscape:pageopacity="0"
     inkscape:pageshadow="2"
     inkscape:window-width="1280"
     inkscape:window-height="961"
     id="namedview8"
     showgrid="false"
     inkscape:pagecheckerboard="true"
     inkscape:zoom="0.53413462"
     inkscape:cx="641.16318"
     inkscape:cy="181.19931"
     inkscape:window-x="-8"
     inkscape:window-y="-8"
     inkscape:window-maximized="1"
     inkscape:current-layer="svg6" />
  <title
     id="title2">logo/4-color/san-francisco</title>
  <g
     id="logo/4-color/san-francisco"
     stroke="none"
     stroke-width="1"
     fill="none"
     fill-rule="evenodd"
     style="fill:#ffffff"
     transform="matrix(6,0,0,5.9039132,0,-11.807826)">
    <path
       sodipodi:nodetypes="cscccccccccccccscccccccccccccccccccccccccccccccccccccccccccccccccc"
       d="m 75.99,9.8296998 c 7.028338,-7.4371731 17.879416,-9.84037155 27.39073,-6.0662506 9.51131,3.774121 15.76241,12.9635198 15.77927,23.1962508 -0.002,2.02205 -0.24673,4.036548 -0.73,6 h -16.29 c 0,0 3.8,-6.14 4.21,-9.06 0.58192,-3.279166 -0.36439,-6.644637 -2.57,-9.14 -4,-4.8600002 -8.54,-4.9200002 -12.66,-4.9200002 z M 81.28,43.2097 c 0,0 10.3,-14.33 11.89,-17.02 0.65,-1.1 1.77,-2.23 0.88,-4.23 -0.508408,-1.068311 -1.597215,-1.738045 -2.78,-1.71 H 70.12 c -0.614316,2.183604 -0.923912,4.441631 -0.920037,6.71 0.01939,10.444594 6.529764,19.776413 16.325476,23.400492 C 95.321151,53.984271 106.33747,51.136734 113.15,43.2197 Z M 8.52,43.0797 H 5.3 l -2.62,3.1 v -3.1 H 0 v 8.72 h 2.68 v -2.27 l 0.65,-0.73 2,3 h 3.25 l -3.39,-4.93 z m 11.36,2.39 h 2.51 v 6.33 h 2.67 v -6.33 h 2.52 v -2.39 h -7.7 z m 24.57,2.57 -1.78,-5 h -3 l 3.54,8.78 h 2.37 l 3.54,-8.78 h -2.89 z m 22.48,-5 v 4.92 c 0.04472,0.427291 -0.08107,0.854959 -0.35,1.19 -0.565814,0.518594 -1.434186,0.518594 -2,0 -0.26331,-0.338355 -0.391602,-0.762429 -0.36,-1.19 v -4.88 H 61.5 v 4.88 c -0.01282,0.5987 0.08202,1.194834 0.28,1.76 0.172082,0.46721 0.445259,0.890634 0.8,1.24 0.367382,0.340338 0.809083,0.590293 1.29,0.73 0.551729,0.181547 1.129176,0.272723 1.71,0.27 0.565718,0.0067 1.12906,-0.07427 1.67,-0.24 0.483906,-0.139645 0.928875,-0.389512 1.3,-0.73 0.370597,-0.35784 0.654494,-0.795657 0.83,-1.28 0.207382,-0.580307 0.3057,-1.193951 0.29,-1.81 v -4.82 z"
       id="san-francisco"
       fill="#ffffff"
       fill-rule="nonzero"
       style="fill:#ffffff" />
  </g>
  <g
     id="g3196"
     transform="matrix(1.3770279,0,0,1.4125854,-759.67362,48.766871)"
     style="fill:#ffffff">
    <g
       id="g3163"
       transform="matrix(0.19672652,0,0,0.20114274,531.748,0.58080042)"
       style="fill:#ffffff">
      <g
         id="g3072"
         style="fill:#ffffff">
        <g
           id="g3177"
           style="fill:#ffffff">
          <g
             id="g3218"
             style="fill:#ffffff">
            <g
               id="g2336"
               style="fill:#ffffff" />
          </g>
        </g>
      </g>
    </g>
    <g
       transform="matrix(1.0035685,0,0,0.99626807,755.26602,-745.31028)"
       id="layer1-0"
       inkscape:label="Layer 1"
       style="fill:#ffffff">
      <g
         transform="matrix(1.25,0,0,-1.25,98.730606,940.49959)"
         id="g10"
         style="fill:#ffffff">
        <g
           transform="scale(0.1)"
           id="g12"
           style="fill:#ffffff">
          <g
             id="g3068"
             style="fill:#ffffff">
            <g
               id="g3204"
               style="fill:#ffffff">
              <g
                 id="g2340"
                 style="fill:#ffffff" />
            </g>
          </g>
        </g>
      </g>
    </g>
    <g
       transform="matrix(1.0327093,0,0,1.0327093,-26.517574,-4.8736318)"
       id="text2368"
       style="font-style:normal;font-variant:normal;font-weight:bold;font-stretch:normal;font-size:172.342px;line-height:1.25;font-family:Gotham;-inkscape-font-specification:'Gotham Bold';text-align:center;letter-spacing:0px;word-spacing:0px;text-anchor:middle;fill:#ffffff;fill-opacity:1;stroke:none;stroke-width:4.30856"
       aria-label="NEWS" />
    <g
       transform="matrix(1.5394547,0,0,1.4560767,3068.5945,-383.92617)"
       id="text843"
       style="font-style:normal;font-variant:normal;font-weight:bold;font-stretch:normal;font-size:40px;line-height:1.25;font-family:'Gotham Black';-inkscape-font-specification:'Gotham Black, Bold';text-align:center;letter-spacing:0px;word-spacing:0px;text-anchor:middle;fill:#ffffff;fill-opacity:1;stroke:none"
       aria-label="KTVU">
      <g
         id="g888"
         style="fill:#ffffff" />
    </g>
  </g>
  <style
     id="style1426">
		tspan { white-space:pre }
		.shp0 { fill: #000000 } 
	</style>
  <g
     style="fill:#ffffff"
     transform="matrix(0.40729752,0,0,0.41214747,1.84359,56.557718)"
     id="layer1">
    <g
       style="fill:#ffffff"
       id="g1614">
      <path
         style="fill:#ffffff"
         id="path991-0"
         fill-rule="evenodd"
         class="shp0"
         d="M 895.21,215.08 1016.84,429.42 876.75,429.66 825.3,338.7 773.86,429.66 633.78,429.42 755.41,215.08 633.78,0 H 773.16 L 825.3,91.9 877.46,0 h 139.38 z M 483.4,0.14 c 118.55,0 214.66,96.1 214.66,214.64 0,118.54 -96.11,214.64 -214.66,214.64 -118.56,0 -214.66,-96.1 -214.66,-214.64 C 268.74,96.24 364.84,0.14 483.4,0.14 Z M 521,126.53 c 0,-20.11 -17.43,-38.12 -37.01,-38.12 -19.6,0 -35.44,18.01 -35.44,38.12 l -0.04,175.83 c 0,20.13 15.88,36.43 35.47,36.43 19.59,0 37.02,-15.79 37.02,-35.91 z M 0.02,429.42 V 0 h 267.03 l 7.87,117.13 H 130.01 v 56.2 h 118.18 v 117.5 H 130.01 v 138.59 z" />
    </g>
  </g>
</svg>
